<?xml version="1.0" standalone="no"?>
<!DOCTYPE svg PUBLIC "-//W3C//DTD SVG 20010904//EN"
 "http://www.w3.org/TR/2001/REC-SVG-20010904/DTD/svg10.dtd">
<svg version="1.0" xmlns="http://www.w3.org/2000/svg"
 width="512.000000pt" height="512.000000pt" viewBox="0 0 512.000000 512.000000"
 preserveAspectRatio="xMidYMid meet">

<g transform="translate(0.000000,512.000000) scale(0.100000,-0.100000)"
fill="#000000" stroke="none">
<path d="M2360 5079 c-449 -23 -829 -114 -1073 -257 -116 -68 -219 -191 -277
-333 -58 -139 -114 -435 -124 -645 -2 -50 -8 -99 -14 -110 -23 -44 -31 -72
-37 -129 -11 -109 -6 -104 -94 -102 -86 2 -120 -12 -145 -61 -8 -15 -26 -99
-40 -186 -28 -167 -32 -180 -47 -171 -36 23 -79 -41 -79 -117 0 -53 19 -83 64
-98 l33 -11 7 -84 c3 -47 8 -122 12 -167 l5 -83 -59 -28 c-122 -56 -273 -230
-313 -359 -35 -112 -16 -266 51 -397 35 -70 97 -137 135 -147 14 -3 25 -12 25
-18 0 -36 183 -308 289 -430 56 -64 60 -78 71 -215 20 -261 137 -512 319 -683
177 -167 398 -221 773 -189 167 15 238 29 347 71 97 37 134 67 211 163 55 69
63 75 106 81 74 10 120 7 190 -10 52 -13 68 -22 79 -43 38 -75 195 -172 337
-210 184 -50 466 -60 638 -24 279 59 428 178 560 448 75 151 108 268 119 411
10 124 20 151 91 234 26 30 98 132 160 225 69 103 140 196 180 236 134 133
189 323 141 489 -26 92 -62 158 -113 206 -67 64 -207 174 -242 191 l-32 15 18
151 c9 84 17 160 17 170 1 12 9 17 30 17 44 0 56 23 56 105 -1 80 -13 105 -51
105 -32 0 -38 17 -64 170 -40 237 -44 243 -174 250 -52 3 -97 8 -100 11 -3 2
-6 38 -7 79 -1 53 -8 91 -24 130 -19 44 -25 82 -30 185 -15 319 -95 579 -230
755 -82 107 -176 173 -344 244 -337 142 -768 195 -1351 165z m807 -147 c168
-27 272 -52 402 -97 377 -132 512 -303 580 -735 25 -158 45 -359 37 -367 -3
-4 -73 5 -154 20 -211 38 -332 52 -712 84 -167 14 -310 17 -770 16 -351 -1
-597 -6 -650 -13 -47 -6 -148 -15 -225 -20 -77 -5 -183 -16 -235 -25 -52 -9
-128 -21 -168 -26 -40 -5 -112 -18 -160 -27 -132 -27 -126 -32 -119 112 17
334 88 574 217 733 146 181 449 300 885 347 210 23 214 24 590 21 297 -2 370
-6 482 -23z m83 -1311 c167 -8 252 -19 585 -75 215 -37 395 -68 401 -70 18 -7
25 -100 36 -481 5 -198 12 -398 15 -445 6 -105 -9 -175 -47 -226 -16 -22 -30
-44 -30 -51 0 -17 -30 -44 -41 -38 -5 4 -9 31 -9 61 0 46 6 63 36 108 34 52
35 57 31 128 -4 72 -56 540 -61 545 -1 1 -14 -64 -28 -146 -31 -172 -56 -245
-104 -302 -19 -22 -34 -45 -34 -50 0 -5 -8 -9 -18 -9 -10 0 -27 -7 -38 -15
-25 -19 -46 -19 -119 0 -158 42 -410 191 -750 443 -301 225 -455 266 -675 180
-92 -35 -203 -106 -403 -256 -277 -208 -466 -318 -639 -374 l-70 -23 -57 31
c-107 58 -146 138 -186 376 -14 83 -27 154 -30 156 -18 18 -35 -89 -35 -222 0
-61 -7 -147 -15 -191 -8 -44 -14 -109 -15 -144 0 -58 4 -72 41 -133 38 -65 40
-72 34 -123 -4 -30 -11 -55 -15 -55 -14 0 -92 129 -106 176 -18 61 -18 183 1
364 10 92 16 246 16 420 1 212 4 280 14 296 11 17 28 23 82 29 37 3 172 24
298 45 235 40 440 64 690 79 166 11 968 6 1245 -8z m1203 -201 c14 -11 30 -35
36 -53 23 -72 42 -232 48 -407 6 -195 -5 -331 -33 -413 -14 -41 -20 -48 -52
-56 -78 -19 -100 -21 -106 -6 -32 84 -67 849 -43 922 13 38 108 46 150 13z
m-3569 -27 c19 -115 -11 -790 -41 -911 -5 -22 -9 -23 -62 -16 -31 3 -64 11
-74 16 -48 25 -71 184 -65 449 3 151 9 210 33 333 33 169 29 164 136 165 l66
1 7 -37z m1938 -270 c69 -35 161 -96 283 -189 333 -252 501 -348 765 -439 74
-25 149 -56 167 -68 81 -55 101 -173 50 -295 -14 -35 -64 -127 -111 -205 -47
-78 -91 -157 -97 -174 -6 -20 -18 -33 -28 -33 -9 0 -79 32 -156 71 -169 85
-264 159 -439 341 -272 283 -333 341 -407 398 -106 79 -171 103 -274 98 -160
-7 -242 -69 -610 -462 -184 -196 -333 -315 -503 -400 l-128 -64 -119 201
c-112 190 -155 286 -155 345 0 47 20 102 50 136 31 35 136 96 166 96 35 0 234
79 322 126 116 63 306 192 461 313 162 126 238 176 317 212 92 42 126 48 241
46 100 -2 102 -3 205 -54z m-2101 -674 c56 -14 89 -26 89 -35 0 -16 -88 -86
-215 -170 -176 -116 -225 -178 -232 -294 -3 -50 1 -84 21 -149 14 -46 23 -87
20 -90 -10 -11 -64 64 -85 119 -65 169 -41 335 66 466 58 70 177 155 243 173
2 1 44 -9 93 -20z m3981 -62 c156 -124 194 -203 186 -386 -4 -77 -12 -122 -28
-165 -21 -55 -73 -127 -83 -116 -3 3 6 41 20 85 32 106 35 196 6 250 -32 59
-103 123 -243 215 -127 85 -198 145 -187 157 15 15 145 42 188 39 40 -2 58
-12 141 -79z m-1913 -42 c110 -57 168 -99 316 -230 190 -167 371 -295 418
-295 7 0 24 -11 36 -24 29 -31 106 -62 296 -121 269 -84 341 -132 406 -270 52
-112 72 -201 72 -320 0 -160 -34 -294 -117 -471 -111 -233 -233 -341 -454
-397 -77 -19 -113 -22 -317 -22 -204 0 -240 3 -317 22 -111 29 -194 70 -241
122 -49 54 -53 80 -33 180 l18 85 -22 18 -22 18 31 0 c39 0 62 35 86 129 10
36 24 90 32 119 16 51 15 53 -7 77 -13 14 -32 27 -42 31 -16 5 -18 15 -16 93
3 104 -6 121 -63 121 -45 0 -44 -1 -23 69 14 48 14 55 -1 77 -22 34 -74 64
-111 64 -23 0 -40 -10 -71 -45 -22 -25 -45 -45 -51 -45 -6 0 -25 18 -42 40
-28 36 -36 40 -76 40 -38 0 -51 -6 -87 -39 l-42 -40 18 -49 c23 -66 22 -69
-19 -75 -60 -10 -64 -19 -64 -127 l0 -97 -32 -10 c-32 -9 -33 -10 -31 -64 2
-62 56 -240 80 -264 11 -11 24 -14 42 -10 l25 6 -19 -21 c-19 -21 -19 -22 2
-123 l21 -102 -45 -53 c-72 -84 -188 -131 -398 -162 -101 -15 -320 -15 -405 0
-171 30 -305 94 -405 195 -107 108 -181 249 -232 442 -21 82 -26 121 -27 243
-2 211 35 329 135 435 72 76 126 104 329 169 253 82 464 188 555 281 17 16 60
51 95 77 36 26 110 88 165 138 125 113 194 160 287 196 103 39 125 43 203 40
62 -2 82 -9 164 -51z m1586 14 c4 -5 18 -14 30 -19 21 -8 23 -13 15 -42 -13
-46 -70 -153 -139 -262 -121 -190 -209 -325 -228 -350 l-21 -26 -53 19 c-51
17 -54 20 -51 50 1 18 18 64 38 103 38 76 244 391 275 421 11 10 29 37 40 60
32 63 48 78 70 67 10 -6 21 -15 24 -21z m-3472 -54 c21 -39 49 -81 63 -95 32
-32 217 -316 254 -389 16 -31 33 -73 38 -94 10 -36 9 -39 -16 -49 -15 -5 -43
-12 -63 -15 -44 -6 -47 -3 -184 222 -53 88 -112 179 -131 202 -19 23 -34 49
-34 59 0 9 -16 46 -35 81 -19 35 -35 69 -35 76 0 17 72 77 90 74 8 -1 32 -34
53 -72z m3831 -205 c37 -45 60 -131 52 -197 -9 -80 -56 -192 -135 -324 -78
-130 -245 -370 -267 -382 -17 -9 -18 -7 -69 149 l-36 111 196 346 c216 380
202 364 259 297z m-4134 -125 c74 -147 113 -213 239 -404 69 -106 72 -122 37
-213 -14 -35 -32 -89 -41 -121 -16 -57 -17 -58 -38 -44 -32 21 -123 143 -217
292 -100 158 -91 141 -133 250 -74 192 -71 275 12 364 17 19 38 31 48 29 11
-2 45 -57 93 -153z"/>
<path d="M2220 3493 c-257 -20 -848 -64 -934 -69 -142 -9 -151 -17 -143 -118
16 -181 132 -462 208 -501 44 -23 107 -18 174 14 33 15 157 91 275 168 214
140 295 188 464 278 97 52 176 117 176 145 0 27 -27 74 -47 82 -18 7 -92 7
-173 1z m-966 -283 c30 -129 45 -173 91 -264 31 -60 54 -110 52 -112 -8 -9
-69 40 -91 73 -55 83 -136 338 -136 428 0 32 23 52 42 36 4 -3 23 -76 42 -161z"/>
<path d="M2762 3464 c-26 -30 -25 -71 3 -111 8 -12 75 -53 149 -92 191 -100
304 -166 531 -311 208 -132 278 -165 330 -156 78 15 124 70 185 220 69 169 98
324 70 376 -17 31 -67 39 -315 50 -132 6 -312 17 -400 26 -88 8 -243 17 -345
20 l-185 6 -23 -28z m1236 -96 c16 -16 15 -53 -3 -135 -51 -221 -124 -362
-207 -395 -26 -11 -23 14 6 41 40 38 87 155 128 324 22 89 42 165 44 169 7 11
18 10 32 -4z"/>
<path d="M2509 1617 c-149 -43 -238 -152 -354 -437 -64 -156 -135 -291 -160
-300 -28 -11 -108 3 -142 25 -15 10 -48 35 -73 56 -68 57 -132 82 -225 87 -65
3 -91 0 -137 -18 -71 -26 -145 -92 -178 -156 -22 -42 -25 -62 -25 -144 0 -84
3 -101 28 -147 15 -29 34 -53 41 -53 8 0 17 -9 21 -19 8 -26 75 -85 125 -111
110 -56 314 -81 465 -57 165 27 269 82 313 167 30 58 25 122 -21 251 l-33 94
-55 1 c-75 0 -83 8 -49 44 37 39 95 154 165 326 90 222 174 324 288 355 62 17
184 7 234 -19 106 -55 162 -136 268 -387 42 -99 94 -207 116 -241 21 -33 39
-63 39 -66 0 -3 -26 -4 -58 -1 l-57 5 -22 -38 c-32 -59 -56 -152 -57 -225 0
-55 4 -73 24 -102 72 -105 267 -165 500 -154 135 6 227 31 290 79 23 18 54 41
69 50 31 21 73 77 104 138 31 62 31 184 0 252 -56 122 -154 181 -303 181 -105
1 -176 -21 -228 -70 -67 -64 -119 -95 -164 -100 -31 -4 -49 -1 -59 9 -41 42
-95 139 -153 276 -36 84 -82 185 -103 224 -50 95 -129 179 -194 208 -64 27
-176 35 -240 17z"/>
</g>
</svg>
